<?xml version="1.0" standalone="no"?>
<!DOCTYPE svg PUBLIC "-//W3C//DTD SVG 20010904//EN"
 "http://www.w3.org/TR/2001/REC-SVG-20010904/DTD/svg10.dtd">
<svg version="1.0" xmlns="http://www.w3.org/2000/svg"
 width="1024.000000pt" height="1024.000000pt" viewBox="0 0 1024.000000 1024.000000"
 preserveAspectRatio="xMidYMid meet">

<g transform="translate(0.000000,1024.000000) scale(0.100000,-0.100000)"
fill="#000000" stroke="none">
<path d="M5032 9299 c-136 -16 -255 -69 -349 -153 -91 -82 -134 -159 -287
-524 -79 -189 -157 -362 -172 -384 -88 -126 -292 -209 -446 -180 -43 8 -136
48 -302 128 -296 144 -352 167 -451 189 -145 33 -308 3 -445 -80 -138 -84
-285 -256 -329 -386 -40 -117 -37 -276 6 -409 8 -25 65 -171 126 -325 98 -249
111 -288 115 -355 2 -42 -1 -101 -8 -133 -26 -128 -123 -266 -231 -329 -24
-14 -158 -71 -298 -127 -305 -122 -346 -141 -413 -191 -104 -79 -201 -232
-229 -365 -18 -81 -18 -315 0 -385 34 -134 119 -267 222 -344 70 -52 150 -92
308 -151 448 -167 509 -206 596 -377 43 -87 58 -162 53 -263 -5 -74 -15 -104
-127 -388 -135 -341 -157 -423 -148 -547 13 -158 86 -291 237 -432 156 -146
267 -198 441 -206 85 -3 121 0 187 16 73 19 281 109 539 235 123 60 206 74
307 54 131 -27 232 -89 296 -182 16 -23 86 -181 156 -351 159 -390 180 -431
270 -520 120 -121 278 -183 467 -184 263 0 480 128 592 351 19 36 84 187 146
335 139 335 156 368 216 425 81 78 151 111 273 130 106 16 172 -3 415 -121
358 -174 425 -195 595 -187 173 7 289 61 442 206 165 156 231 290 231 469 0
128 -18 190 -153 528 -60 149 -114 299 -121 333 -34 173 64 388 225 497 28 19
177 84 331 146 154 61 307 127 340 146 94 55 178 149 230 256 23 50 49 116 57
146 17 73 17 317 -1 390 -36 147 -142 292 -274 374 -40 24 -171 83 -292 131
-317 124 -340 134 -405 176 -101 65 -177 183 -206 317 -29 139 -21 171 120
513 115 281 132 329 145 439 25 198 -37 356 -209 529 -90 91 -188 153 -297
188 -69 22 -91 24 -193 21 -147 -5 -174 -15 -510 -178 -338 -164 -388 -178
-528 -145 -125 30 -241 113 -294 212 -14 27 -72 161 -128 298 -147 359 -163
397 -204 459 -130 195 -373 297 -634 265z m217 -361 c52 -16 119 -84 158 -161
19 -38 85 -191 147 -340 62 -150 125 -295 139 -322 148 -292 512 -458 859
-391 103 20 120 28 428 177 265 129 278 134 348 138 66 3 79 0 136 -28 82 -40
187 -142 211 -204 13 -36 16 -64 12 -119 -4 -64 -20 -109 -120 -354 -63 -154
-122 -310 -131 -345 -18 -75 -21 -240 -5 -339 37 -232 181 -455 371 -573 40
-25 138 -71 218 -102 512 -200 513 -201 564 -295 26 -47 30 -67 34 -155 3 -74
0 -116 -11 -156 -18 -59 -68 -126 -120 -157 -17 -11 -156 -71 -307 -132 -151
-61 -300 -125 -330 -142 -269 -149 -430 -438 -430 -773 0 -121 20 -193 120
-445 45 -113 97 -247 116 -298 63 -171 42 -269 -78 -377 -115 -104 -173 -129
-276 -123 -61 3 -90 15 -307 117 -132 63 -275 127 -318 142 -272 100 -605 34
-823 -165 -104 -94 -143 -163 -290 -516 -74 -177 -151 -347 -171 -377 -64 -96
-195 -146 -328 -124 -171 28 -201 68 -374 492 -55 136 -114 276 -131 313 -65
138 -201 272 -344 341 -121 58 -211 77 -366 78 -194 1 -217 -6 -608 -190 -251
-118 -298 -130 -403 -100 -88 26 -230 161 -265 252 -25 67 -14 132 47 281 190
470 219 563 219 708 -1 296 -141 565 -379 724 -67 45 -144 81 -346 162 -377
150 -392 159 -443 255 -25 46 -27 60 -27 170 0 104 3 127 23 171 27 59 69 103
127 133 22 11 159 68 305 126 279 113 322 133 410 201 214 163 341 439 327
714 -7 130 -18 167 -150 505 -58 149 -111 290 -117 315 -25 95 8 182 106 276
91 87 140 109 239 109 l80 0 295 -142 c162 -78 324 -150 360 -159 48 -13 102
-18 205 -18 169 0 227 13 375 85 90 45 116 64 195 143 109 108 128 144 275
495 56 135 117 276 136 314 39 76 102 150 148 174 58 30 185 35 265 11z"/>
<path d="M4934 7510 c-1074 -105 -1884 -986 -1884 -2050 0 -1026 725 -1884
1745 -2065 128 -23 376 -30 518 -16 947 98 1701 793 1862 1716 152 874 -277
1759 -1056 2174 -198 105 -458 191 -684 226 -125 19 -381 27 -501 15z m360
-350 c692 -66 1286 -544 1490 -1200 61 -197 71 -269 70 -505 0 -188 -3 -223
-27 -336 -134 -635 -574 -1126 -1185 -1323 -191 -62 -322 -79 -557 -73 -218 5
-313 20 -488 78 -101 33 -293 122 -372 172 -525 330 -825 866 -826 1475 -1
299 49 519 177 777 310 630 997 1003 1718 935z"/>
<path d="M5066 6840 c-73 -23 -106 -85 -106 -198 l0 -79 -82 -27 c-234 -76
-409 -259 -453 -471 -29 -140 -14 -319 36 -418 76 -150 248 -281 437 -333 l62
-17 0 -309 c0 -169 -2 -308 -5 -308 -3 0 -23 9 -43 19 -53 27 -116 99 -137
157 -44 121 -52 134 -97 154 -122 56 -268 -18 -268 -135 0 -90 60 -227 146
-332 72 -87 196 -166 329 -209 l70 -22 6 -79 c9 -129 46 -172 153 -180 50 -3
68 0 100 19 59 34 79 76 80 163 l1 73 72 21 c203 59 365 195 448 376 42 90 56
159 56 268 -2 247 -117 414 -366 533 -49 23 -115 49 -145 56 l-55 14 -5 308
c-3 169 -2 310 1 312 13 8 101 -61 129 -100 16 -24 38 -72 50 -107 35 -106 92
-146 191 -137 99 10 168 93 154 186 -28 185 -168 365 -357 456 -51 25 -109 48
-129 51 l-36 7 -5 93 c-6 105 -24 148 -75 178 -37 21 -116 30 -157 17z m-106
-906 l0 -275 -60 32 c-66 35 -115 88 -136 147 -42 118 21 275 138 342 29 16
54 30 56 30 1 0 2 -124 2 -276z m408 -753 c105 -54 152 -124 152 -229 0 -70
-42 -165 -92 -207 -27 -23 -128 -80 -128 -73 -5 79 -3 538 3 538 4 0 33 -13
65 -29z"/>
</g>
</svg>
