<svg xmlns="http://www.w3.org/2000/svg" viewBox="0 0 1024 1024" width="1024" height="1024">
	<g fill="#0C4DA2">
		<!-- Head shape (outer lines) -->
		<path d="M4528 9139c-631-43-1227-278-1728-682-112-91-345-327-444-452-371-467-585-986-657-1595-18-154-15-517 5-674 33-252 94-487 182-694 78-183 154-316 388-682 283-442 317-541 337-990 18-407-11-929-93-1725-23-220-42-432-43-472 0-85 17-116 85-151l44-22h3538c53 0 74 7 97 30 37 45 42 85 26 240-19 186-17 602 4 746 21 150 46 255 60 255 7 0 64-7 127-15 163-22 539-31 677-16 241 25 374 80 498 205 130 130 176 247 194 492 6 72 13 139 16 150 4 10 34 74 68 142 59 117 62 127 62 195-1 47-6 82-17 102l-16 29 51 56c74 81 92 126 92 235 0 76-5 104-33 182-58 164-56 167 158 219 131 31 216 73 280 137 118 118 148 283 79 443-10 25-126 212-258 417-378 589-351 514-362 1002-6 290-11 387-29 499-89 581-320 1042-718 1434-553 545-1333 882-2152 932-183 11-240 11-412-1z" />
	</g>
	<g fill="#da251a">
		<!-- Inner flame approximation (manually colored) -->
		<path d="M4505 8406c-46-20-83-70-89-119-3-23-12-104-21-179-9-75-31-196-50-270-82-327-189-536-512-1003-204-295-296-458-379-671-137-350-148-704-33-1031 135-381 456-689 864-829 60-21 100-28 162-28 80-1 83 0 117 33 65 63 61 135-13 232-106 141-195 323-238 487-19 76-25 123-25 217-2 236 50 349 334 724 166 218 287 399 334 494l33 69 82-104c224-280 375-564 440-828 32-131 33-376 1-491-55-203-160-380-332-563-42-44-82-91-88-103-29-55-2-135 60-174 30-19 44-20 148-15 366 16 760 247 976 572 139 209 209 442 221 734 27 718-315 1427-1042 2156-226 227-390 371-600 529-222 166-280 193-350 161z" />
	</g>
</svg>
