<?xml version="1.0" standalone="no"?>
<!DOCTYPE svg PUBLIC "-//W3C//DTD SVG 20010904//EN"
 "http://www.w3.org/TR/2001/REC-SVG-20010904/DTD/svg10.dtd">
<svg version="1.0" xmlns="http://www.w3.org/2000/svg"
 width="1024.000000pt" height="1024.000000pt" viewBox="0 0 1024.000000 1024.000000"
 preserveAspectRatio="xMidYMid meet">

<g transform="translate(0.000000,1024.000000) scale(0.100000,-0.100000)"
fill="#000000" stroke="none">
<path d="M3520 9081 c-194 -42 -342 -121 -476 -255 -193 -194 -286 -417 -286
-691 -1 -202 40 -361 149 -580 203 -410 638 -891 1448 -1599 99 -87 197 -166
217 -177 46 -24 113 -24 155 -1 80 43 561 479 873 792 585 584 849 976 916
1360 22 127 15 332 -16 445 -79 295 -281 528 -559 648 -98 42 -212 67 -337 74
-326 17 -605 -106 -860 -381 l-88 -95 -99 104 c-195 206 -381 313 -629 360
-109 20 -300 18 -408 -4z m414 -335 c163 -42 272 -113 404 -266 40 -47 104
-131 142 -187 56 -81 78 -105 113 -122 50 -24 85 -26 131 -7 37 15 52 33 135
161 163 248 317 372 525 425 157 40 342 20 485 -52 82 -42 196 -148 244 -229
67 -113 82 -181 82 -364 0 -154 -1 -163 -32 -252 -99 -284 -307 -568 -721
-986 -263 -265 -771 -737 -794 -737 -21 0 -489 430 -734 674 -485 484 -717
807 -800 1111 -29 106 -27 325 3 420 106 334 446 505 817 411z"/>
<path d="M7195 7256 c-36 -15 -76 -60 -93 -102 -23 -59 -372 -1092 -372 -1103
0 -8 -168 -11 -588 -11 l-589 0 -43 -23 c-30 -16 -51 -37 -67 -67 -29 -54 -29
-84 0 -140 20 -40 73 -82 502 -393 264 -191 479 -351 479 -355 -3 -11 -91
-291 -233 -739 -72 -227 -131 -427 -131 -445 0 -45 30 -98 70 -126 35 -23 99
-29 142 -13 20 7 322 226 808 584 80 59 155 110 167 113 23 6 90 -40 428 -292
222 -165 526 -388 549 -401 32 -18 107 -15 146 6 45 23 80 84 80 138 0 25 -45
183 -116 410 -64 202 -144 458 -178 568 l-63 199 106 81 c58 44 176 132 261
195 446 329 583 435 601 464 40 66 17 157 -54 210 -28 21 -36 21 -627 21 -329
0 -600 2 -603 5 -3 3 -85 250 -182 550 -97 300 -186 565 -198 590 -36 74 -128
108 -202 76z m195 -1050 c72 -217 140 -407 152 -421 47 -60 46 -60 487 -65
l404 -5 -124 -94 c-68 -52 -198 -151 -289 -219 -241 -183 -260 -203 -260 -282
0 -23 42 -175 99 -358 133 -428 143 -465 126 -458 -8 3 -117 81 -242 174 -454
335 -434 322 -496 322 -40 0 -89 -28 -213 -122 -250 -189 -514 -377 -514 -366
0 6 57 190 126 408 122 384 125 398 114 440 -7 25 -25 57 -44 74 -17 17 -170
132 -339 255 -169 123 -307 226 -307 230 0 3 174 5 387 3 426 -3 441 -1 497
57 29 30 35 45 201 534 53 158 99 287 100 287 2 0 63 -178 135 -394z"/>
<path d="M2893 6570 c-79 -17 -138 -79 -147 -153 -3 -23 -12 -109 -21 -192
-24 -223 -83 -627 -107 -730 -111 -476 -354 -752 -713 -810 -112 -18 -123 -23
-159 -66 l-26 -31 0 -1110 0 -1110 22 -39 c14 -25 37 -46 63 -59 41 -20 62
-20 1358 -20 911 0 1332 3 1369 11 90 18 212 83 276 147 104 102 148 226 132
372 l-8 75 69 71 c49 51 80 94 106 150 34 72 38 88 41 181 4 83 0 114 -18 177
l-23 75 56 61 c63 70 108 149 132 234 25 85 16 217 -19 310 l-26 68 29 34 c99
112 150 282 130 432 -25 179 -171 340 -353 388 -41 11 -188 14 -731 14 -374 0
-685 4 -691 8 -8 5 -13 122 -17 377 -6 394 -12 453 -57 583 -44 130 -111 233
-225 347 -79 80 -117 109 -180 142 -116 59 -193 78 -262 63z m235 -435 c36
-38 75 -94 96 -137 68 -140 69 -143 75 -658 5 -413 8 -468 23 -496 23 -43 71
-81 116 -94 24 -6 296 -10 767 -10 471 0 743 -4 767 -10 48 -14 97 -55 114
-97 37 -88 -2 -185 -107 -269 -83 -66 -103 -100 -97 -165 4 -36 15 -61 51
-108 55 -73 71 -118 65 -181 -7 -75 -47 -132 -137 -195 -96 -67 -115 -94 -115
-160 0 -40 7 -62 37 -110 59 -97 70 -154 42 -236 -19 -56 -58 -98 -145 -155
-104 -68 -122 -123 -75 -234 49 -117 27 -184 -77 -231 l-53 -24 -1220 0 -1220
0 0 909 0 910 90 31 c167 58 287 135 421 269 146 146 250 320 324 545 52 155
83 314 125 631 45 344 45 340 60 340 7 0 40 -29 73 -65z"/>
</g>
</svg>
